<!-- sample rectangle -->
<svg width="200" height="200" xmlns="http://www.w3.org/2000/svg">
<path xmlns="http://www.w3.org/2000/svg" d="M73.57,68.853c-10.413-10.41-10.413-27.298,0-37.708l4.476-4.479l-4.713-4.713l-4.476,4.473  c-10.414,10.416-27.302,10.416-37.712,0l-4.482-4.473l-4.713,4.713l4.476,4.479c10.41,10.403,10.413,27.278,0.017,37.695  l-4.492,4.492l4.713,4.713l4.479-4.473c10.413-10.416,27.298-10.416,37.711,0l4.479,4.473l4.713-4.713L73.57,68.853z"></path>
<path xmlns="http://www.w3.org/2000/svg" d="M21.711,35.858c2.168,2.168,3.672,4.732,4.633,7.441c-4.157-0.078-8.291-1.674-11.462-4.851  c-6.51-6.504-6.51-17.057,0-23.567c6.507-6.51,17.058-6.51,23.567,0c3.19,3.19,4.792,7.344,4.856,11.523  c-2.767-0.983-5.313-2.553-7.45-4.694l-2.119-2.115c-3.906-3.906-10.234-3.906-14.141,0s-3.906,10.233,0,14.14L21.711,35.858z"></path>
<path xmlns="http://www.w3.org/2000/svg" d="M78.287,64.139c-2.168-2.168-3.668-4.727-4.632-7.441c4.156,0.078,8.291,1.68,11.465,4.851  c6.507,6.511,6.507,17.063,0,23.567c-6.511,6.511-17.061,6.511-23.571,0c-3.187-3.184-4.791-7.344-4.856-11.517  c2.767,0.977,5.313,2.552,7.451,4.694l2.119,2.109c3.906,3.906,10.237,3.906,14.141,0c3.906-3.9,3.906-10.234,0-14.141  L78.287,64.139z"></path>
<path xmlns="http://www.w3.org/2000/svg" d="M64.141,21.711c-2.168,2.168-4.73,3.672-7.441,4.636c0.078-4.16,1.676-8.294,4.85-11.465c6.508-6.51,17.061-6.51,23.567,0  c6.511,6.511,6.511,17.057,0,23.567c-3.187,3.19-7.344,4.792-11.52,4.856c0.979-2.767,2.552-5.313,4.693-7.447l2.113-2.123  c3.906-3.906,3.906-10.233,0-14.14c-3.903-3.906-10.234-3.906-14.141,0L64.141,21.711z"></path>
<path xmlns="http://www.w3.org/2000/svg" d="M35.859,78.286c2.168-2.168,4.729-3.665,7.441-4.629c-0.078,4.153-1.677,8.288-4.851,11.465  c-6.507,6.504-17.061,6.504-23.567,0c-6.51-6.511-6.51-17.063,0-23.574c3.187-3.184,7.344-4.792,11.521-4.856  c-0.98,2.767-2.553,5.313-4.694,7.454l-2.112,2.116c-3.906,3.906-3.906,10.24,0,14.141c3.902,3.906,10.234,3.906,14.141,0  L35.859,78.286z"></path>
</svg>